<svg xmlns="http://www.w3.org/2000/svg" version="1.1" xmlns:xlink="http://www.w3.org/1999/xlink" xmlns:svgjs="http://svgjs.dev/svgjs" width="2000" height="1500" viewBox="0 0 2000 1500"><rect width="2000" height="1500" fill="#003366"></rect><g transform="matrix(0.75,0,0,0.75,250.05006197183093,9.599999999999966)"><svg viewBox="0 0 250 247" data-background-color="#003366" preserveAspectRatio="xMidYMid meet" height="1976" width="2000" xmlns="http://www.w3.org/2000/svg" xmlns:xlink="http://www.w3.org/1999/xlink"><g id="tight-bounds" transform="matrix(1,0,0,1,-0.008343661971821348,-0.09999999999999432)"><svg viewBox="0 0 250.01668732394364 247.2" height="247.2" width="250.01668732394364"><g><svg viewBox="0 0 250.01668732394364 247.2" height="247.2" width="250.01668732394364"><g><svg viewBox="0 0 250.01668732394364 247.2" height="247.2" width="250.01668732394364"><g id="textblocktransform"><svg viewBox="0 0 250.01668732394364 247.2" height="247.2" width="250.01668732394364" id="textblock"><g><svg viewBox="0 0 250.01668732394364 247.2" height="247.2" width="250.01668732394364"><rect width="250.01668732394364" height="247.2" x="0" y="0" opacity="1" fill="#ffffff" data-fill-palette-color="tertiary"></rect><g transform="matrix(1,0,0,1,23.607599999999998,23.607599999999998)"><svg width="202.80148732394366" viewBox="-1 -35.5 36 35.5" height="199.9848" data-palette-color="#003366"><path d="M-1 0L-1-0.75 3-2.25 16.75-35.5 18.25-35.5 32.5-1.5 35-0.75 35 0 29 0Q26.4 0 24.75-1.18 23.1-2.35 22.3-4.25L22.3-4.25 19.75-10.25 7.8-10.25 4.5-2.25 8.25-0.75 8.25 0-1 0ZM13.75-24.65L8.3-11.5 19.25-11.5 13.75-24.65Z" opacity="1" transform="matrix(1,0,0,1,0,0)" fill="#003366" class="wordmark-text-0" data-fill-palette-color="quaternary" id="text-0"></path></svg></g></svg></g></svg></g></svg></g></svg></g><defs></defs></svg><rect width="250.01668732394364" height="247.2" fill="none" stroke="none" visibility="hidden"></rect></g></svg></g></svg>